<?xml version="1.0" encoding="UTF-8"?>
<svg width="72px" height="44px" viewBox="0 0 72 44" version="1.1" xmlns="http://www.w3.org/2000/svg" xmlns:xlink="http://www.w3.org/1999/xlink">
    <!-- Generator: Sketch 41.1 (35376) - http://www.bohemiancoding.com/sketch -->
    <title>Group 16</title>
    <desc>Created with Sketch.</desc>
    <defs>
        <rect id="path-1" x="0" y="0" width="74" height="52"></rect>
        <path d="M21.4386578,7.12514289 C19.3322046,4.93232006 16.426039,3.50944232 13.1873869,3.32239384 C13.1206255,2.99074854 13.0444842,2.37244561 13.2456888,1.82708986 C13.5376223,1.03581747 13.8495858,0.774209277 13.8495858,0.774209277 C13.8495858,0.774209277 12.9465792,1.1676831 12.6112736,1.60817877 C12.275968,2.04867444 12.218086,2.25036515 12.218086,2.25036515 C12.218086,2.25036515 12.0818976,1.71323093 11.4884887,0.938313965 C10.8950798,0.163397002 10.436361,-3.01980663e-14 10.436361,-3.01980663e-14 C10.436361,-3.01980663e-14 10.9796948,0.636603525 11.0735362,1.70867028 C11.1673776,2.78073704 10.8752076,3.24631627 10.8752076,3.24631627 C10.8752076,3.24631627 10.4807582,2.38875722 9.86566328,1.82708986 C9.25056835,1.2654225 8.48516946,1.06907875 8.48516946,1.06907875 C8.48516946,1.06907875 9.23960705,1.54629549 9.39905858,2.44930375 C9.48460714,2.9337836 9.37288684,3.45320721 9.25758674,3.73595685 C3.89585155,5.13332361 -0.148677241,10.0852194 0.00419324793,16.0530084 C0.0910951214,19.4455013 1.41978799,22.2845733 3.92970325,24.6964301 C4.86000944,25.5903907 6.55057772,26.7538938 8.60768177,27.4150232 C10.6647858,28.0761526 16.1395588,28.9449982 20.470081,25.1882696 C27.0002835,19.5233178 24.7574849,12.0246698 23.7761861,10.4614339 C24.1387341,10.0788157 25.1822418,8.89103497 25.7294347,8.24407855 C26.4287503,7.41726456 25.6548347,7.13057281 25.6548347,7.13057281 L27,5.34783132 C27,5.34783132 26.6987612,5.13332361 26.1323219,5.13332361 C25.5658825,5.13332361 24.8853352,5.60865319 24.8853352,5.60865319 L21.7944832,7.41584919 C21.6721628,7.3699469 21.5559857,7.24728154 21.4386578,7.12514289 Z" id="path-3"></path>
    </defs>
    <g id="Page-1" stroke="none" stroke-width="1" fill="none" fill-rule="evenodd">
        <g id="Group-16" transform="translate(-2.000000, -7.000000)">
            <mask id="mask-2" fill="white">
                <use xlink:href="#path-1"></use>
            </mask>
            <g id="Mask"></g>
            <g mask="url(#mask-2)">
                <path d="M41.8211587,45.2789189 C41.5272865,45.2789189 41.2138276,45.2448652 40.8807725,45.1767568 C40.5477173,45.1086483 40.244054,44.9529742 39.9697733,44.7097297 C39.6954926,44.4664853 39.4652962,44.1162185 39.2791772,43.6589189 C39.0930581,43.2016193 39,42.5935173 39,41.8345946 L39,25.8097297 C39,25.3232408 39.1959118,24.9000018 39.5877414,24.54 C39.9795709,24.1799982 40.459555,24 41.0277078,24 C41.5958607,24 42.0758447,24.1751334 42.4676742,24.5254054 C42.8595038,24.8756774 43.0554156,25.3037813 43.0554156,25.8097297 L43.0554156,41.4843243 C43.0554156,41.7956772 43.0750068,42.0194588 43.1141898,42.1556757 C43.1533727,42.2918926 43.2807154,42.467026 43.4962217,42.6810811 C43.6529535,42.8367575 43.7802962,42.9778372 43.8782536,43.1043243 C43.976211,43.2308114 44.0251889,43.4302689 44.0251889,43.7027027 C44.0251889,44.2281107 43.8292771,44.6221608 43.4374475,44.8848649 C43.045618,45.1475689 42.5068604,45.2789189 41.8211587,45.2789189 Z M52.6943745,45.2789189 C51.6560262,45.2789189 50.7401383,45.1378392 49.9466835,44.8556757 C49.1532286,44.5735121 48.4871284,44.1891916 47.9483627,43.7027027 C47.4095971,43.2162138 47.00308,42.6421655 46.7287993,41.9805405 C46.4545186,41.3189156 46.3173804,40.6086524 46.3173804,39.8497297 L46.3173804,35.5005405 C46.3173804,34.7416178 46.4545186,34.0313547 46.7287993,33.3697297 C47.00308,32.7081048 47.4095971,32.1340565 47.9483627,31.6475676 C48.4871284,31.1610786 49.1532286,30.7767582 49.9466835,30.4945946 C50.7401383,30.212431 51.6560262,30.0713514 52.6943745,30.0713514 C53.7327228,30.0713514 54.6486106,30.212431 55.4420655,30.4945946 C56.2355203,30.7767582 56.9016206,31.1610786 57.4403862,31.6475676 C57.9791519,32.1340565 58.3856689,32.7081048 58.6599496,33.3697297 C58.9342303,34.0313547 59.0713686,34.7416178 59.0713686,35.5005405 L59.0713686,39.8497297 C59.0713686,40.6086524 58.9342303,41.3189156 58.6599496,41.9805405 C58.3856689,42.6421655 57.9791519,43.2162138 57.4403862,43.7027027 C56.9016206,44.1891916 56.2355203,44.5735121 55.4420655,44.8556757 C54.6486106,45.1378392 53.7327228,45.2789189 52.6943745,45.2789189 Z M52.6943745,41.8345946 C53.4584421,41.8345946 54.036382,41.6594612 54.4282116,41.3091892 C54.8200411,40.9589172 55.015953,40.4724355 55.015953,39.8497297 L55.015953,35.4713514 C55.015953,34.8681051 54.8200411,34.3913531 54.4282116,34.0410811 C54.036382,33.6908091 53.4584421,33.5156757 52.6943745,33.5156757 C51.9303068,33.5156757 51.3523669,33.6908091 50.9605374,34.0410811 C50.5687078,34.3913531 50.372796,34.8681051 50.372796,35.4713514 L50.372796,39.8497297 C50.372796,40.4724355 50.5687078,40.9589172 50.9605374,41.3091892 C51.3523669,41.6594612 51.9303068,41.8345946 52.6943745,41.8345946 Z M70.0621327,31.4140541 C70.199273,30.9859438 70.4539584,30.6745956 70.8261965,30.48 C71.1984346,30.2854044 71.5804626,30.1881081 71.9722922,30.1881081 C72.4816706,30.1881081 72.9469612,30.3535119 73.368178,30.6843243 C73.7893948,31.0151368 74,31.4432406 74,31.9686486 C74,32.1827038 73.9706132,32.3578372 73.9118388,32.4940541 L70.3266163,42.8854054 C69.9151953,44.0724384 69.5184738,45.1621572 69.13644,46.1545946 C68.7544062,47.147032 68.3038089,48.0032396 67.7846348,48.7232432 C67.2654606,49.4432468 66.6385427,50.0027007 65.9038623,50.4016216 C65.1691819,50.8005425 64.2434984,51 63.1267842,51 C62.5390399,51 62.0492603,50.8345962 61.6574307,50.5037838 C61.2656012,50.1729713 61.0696893,49.7545971 61.0696893,49.2486486 C61.0696893,48.8010788 61.2411122,48.4070287 61.5839631,48.0664865 C61.9268139,47.7259442 62.4019001,47.5362164 63.0092359,47.4972973 C63.6557547,47.4583782 64.1700233,47.1908133 64.5520571,46.6945946 C64.9340909,46.1983759 65.3014256,45.376222 65.6540722,44.2281081 L61.1284635,32.64 C61.069689,32.4843235 61.0305067,32.3481087 61.0109152,32.2313514 C60.9913237,32.114594 60.9815281,32.0075681 60.9815281,31.9102703 C60.9815281,31.4043218 61.17744,30.9908124 61.5692695,30.6697297 C61.9610991,30.348647 62.4410831,30.1881081 63.0092359,30.1881081 C63.4010655,30.1881081 63.7684002,30.2902692 64.111251,30.4945946 C64.4541019,30.6989199 64.7038895,31.0054034 64.8606213,31.4140541 L66.7120067,36.3178378 C66.927513,36.8432459 67.0989358,37.3978349 67.2262804,37.9816216 C67.353625,38.5654083 67.4956611,39.129727 67.6523929,39.6745946 C67.7895333,39.129727 67.916876,38.5654083 68.0344249,37.9816216 C68.1519737,37.3978349 68.2989076,36.8432459 68.4752309,36.3178378 L70.0621327,31.4140541 Z" id="loy" fill="#FFFFFF"></path>
                <g id="Path-4" transform="translate(15.742555, 32.866771) rotate(-10.000000) translate(-15.742555, -32.866771) translate(2.242555, 18.866771)">
                    <mask id="mask-4" fill="white">
                        <use xlink:href="#path-3"></use>
                    </mask>
                    <use id="Mask" fill="#586BFF" xlink:href="#path-3"></use>
                    <path d="M25.4277812,12.6024151 C25.4277812,12.6024151 25.7840031,12.8208609 24.6167149,12.6024151 C23.9406264,12.4758921 22.4721705,12.6208308 21.1267912,13.4153073 C19.781412,14.2097837 18.8886737,15.1545062 18.4734193,16.7836771 C18.0581649,18.412848 18.5549332,21.8816838 16.0355567,24.2941981 C13.5161802,26.7067123 12.1318643,26.9759057 10.1796417,27.3300935 C8.22741914,27.6842813 5.47523521,27.049797 4.02345916,26.3404394 C2.57168311,25.6310818 -1.54365612,22.1568534 -1.54365612,22.1568534 C-1.54365612,22.1568534 -0.434691322,27.1528727 2.44047414,28.5394051 C5.3156396,29.9259375 10.1796417,30.219957 10.1796417,30.219957 C10.1796417,30.219957 13.9837921,30.0738152 15.8365998,29.3819126 C17.6894075,28.6900099 23.3392201,25.3057142 23.3392201,25.3057142 L25.8073846,17.8309423 L25.4277812,12.6024151 Z" fill="#FF61A1" mask="url(#mask-4)" transform="translate(12.131864, 21.391021) rotate(10.000000) translate(-12.131864, -21.391021) "></path>
                    <g mask="url(#mask-4)" id="Path-5" fill="#FFC243">
                        <g transform="translate(21.812051, 5.027473)">
                            <path d="M0.283425283,2.6110325 L0.00129913826,5.33424698 C0.00129913826,5.33424698 -0.0217769424,5.53232807 0.175732361,5.56957531 C0.373241664,5.60682256 2.5040554,5.89203217 2.5040554,5.89203217 L5.02407679,3.19751453 L6.19981453,0.423613265 L4.70809408,0.00355736901 L3.03552198,0.903367887 L0.283425283,2.6110325 Z"></path>
                        </g>
                    </g>
                </g>
                <path d="M13.6939102,30.8172018 C13.6939102,30.8172018 15.5170723,30.9628224 17.7122696,29.7683572 C19.9074669,28.573892 20.688446,26.6878781 20.688446,26.6878781 C20.688446,26.6878781 20.7884423,29.4700438 18.2921833,30.8172018 C15.7959242,32.1643597 13.6939102,30.8172018 13.6939102,30.8172018 Z" id="Path-3" fill="#2F3A92"></path>
                <g id="Group-7" transform="translate(35.213039, 12.857592) rotate(-10.000000) translate(-35.213039, -12.857592) translate(24.713039, 2.357592)" fill="#586BFF">
                    <path d="M0.0659876509,13.3385155 C-0.387193792,13.7952081 -0.387193792,14.538453 0.0659876509,14.9996229 C0.519169094,15.4563155 1.25669968,15.4563155 1.71432407,14.9996229 C4.85105053,11.8385938 9.95600619,11.8385938 13.0927327,14.9996229 C13.3193234,15.2279692 13.6170014,15.3443811 13.9146794,15.3443811 C14.2123574,15.3443811 14.5100354,15.2279692 14.7366261,14.9996229 C15.1898076,14.5429303 15.1898076,13.7996855 14.7366261,13.3385155 C10.6935368,9.25962381 4.10907699,9.25962381 0.0659876509,13.3385155 Z" id="Shape" transform="translate(7.401307, 12.811864) rotate(45.000000) translate(-7.401307, -12.811864) "></path>
                    <path d="M0.537028894,15.3860788 C0.0838474515,15.8427714 0.0838474515,16.5860162 0.537028894,17.0471862 C0.990210337,17.5038788 1.72774092,17.5038788 2.18536532,17.0471862 C3.58489624,15.6323346 5.86857528,15.6323346 7.2681062,17.0471862 C7.49469693,17.2755325 7.79237493,17.3919443 8.09005294,17.3919443 C8.38773095,17.3919443 8.68540895,17.2755325 8.91199967,17.0471862 C9.36518112,16.5904936 9.36518112,15.8472488 8.91199967,15.3905562 C6.60610586,13.057842 2.84736566,13.057842 0.537028894,15.3860788 Z" id="Shape" transform="translate(4.724514, 15.516202) rotate(45.000000) translate(-4.724514, -15.516202) "></path>
                    <path d="M20.6483931,11.2532568 C14.8414505,5.4058006 5.39572746,5.4058006 -0.411215142,11.2532568 C-0.864396585,11.7099494 -0.864396585,12.4531942 -0.411215142,12.9143642 C0.0419663004,13.3710568 0.779496884,13.3710568 1.23712128,12.9143642 C6.13325804,7.97581581 14.1039199,7.97581581 19.0044996,12.9143642 C19.2310903,13.1427105 19.5287683,13.2591223 19.8264463,13.2591223 C20.1241243,13.2591223 20.4218024,13.1427105 20.6483931,12.9143642 C21.1015745,12.4576716 21.1015745,11.7144268 20.6483931,11.2532568 Z" id="Shape" transform="translate(10.118589, 10.063393) rotate(45.000000) translate(-10.118589, -10.063393) "></path>
                </g>
            </g>
        </g>
    </g>
</svg>