<?xml version="1.0" encoding="UTF-8"?>
<svg width="133px" height="46px" viewBox="0 0 133 46" version="1.1" xmlns="http://www.w3.org/2000/svg" xmlns:xlink="http://www.w3.org/1999/xlink">
    <!-- Generator: Sketch 41.1 (35376) - http://www.bohemiancoding.com/sketch -->
    <title>Group 16</title>
    <desc>Created with Sketch.</desc>
    <defs>
        <path d="M21.8212706,7.33610197 C19.6772238,5.0783547 16.7191922,3.61334883 13.4227403,3.42076228 C13.3547875,3.07929772 13.2772873,2.44268826 13.4820828,1.88118578 C13.7792264,1.06648564 14.0967575,0.797131831 14.0967575,0.797131831 C14.0967575,0.797131831 13.177635,1.2022555 12.8363452,1.65579324 C12.4950555,2.10933097 12.4361405,2.31699328 12.4361405,2.31699328 C12.4361405,2.31699328 12.2975216,1.76395575 11.6935222,0.966095282 C11.0895228,0.168234811 10.6226173,-5.15143483e-14 10.6226173,-5.15143483e-14 C10.6226173,-5.15143483e-14 11.1756479,0.65545189 11.2711641,1.75926007 C11.3666803,2.86306826 11.0692959,3.34243222 11.0692959,3.34243222 C11.0692959,3.34243222 10.6678069,2.45948283 10.0417344,1.88118578 C9.41566197,1.30288874 8.63660311,1.10073171 8.63660311,1.10073171 C8.63660311,1.10073171 9.40450504,1.59207774 9.56680228,2.521822 C9.65387761,3.02064618 9.54016346,3.55544873 9.42280562,3.84656993 C3.96538028,5.2853095 -0.151330663,10.3838195 0.00426808425,16.528301 C0.0927208835,20.0212378 1.44512675,22.9443683 3.99983612,25.4276345 C4.94674536,26.3480632 6.66748498,27.5460151 8.76130188,28.2267189 C10.8551188,28.9074228 16.4275993,29.801993 20.8354077,25.9340363 C27.4821539,20.1013583 25.1993283,12.3806926 24.2005164,10.7711729 C24.5695347,10.3772262 25.6316658,9.15427805 26.1886244,8.48816674 C26.9004206,7.63687269 26.112693,7.34169265 26.112693,7.34169265 L27.4818653,5.50616829 C27.4818653,5.50616829 27.1752503,5.2853095 26.5987018,5.2853095 C26.0221533,5.2853095 25.3294603,5.7747125 25.3294603,5.7747125 L22.1834463,7.63541541 C22.0589429,7.58815407 21.9406924,7.46185686 21.8212706,7.33610197 Z" id="path-1"></path>
    </defs>
    <g id="Desktop" stroke="none" stroke-width="1" fill="none" fill-rule="evenodd">
        <g id="Main-Copy-2" transform="translate(-34.000000, -22.000000)">
            <g id="Group-16" transform="translate(32.000000, 15.000000)">
                <g id="Group-2">
                    <g id="Path-4-Copy" transform="translate(16.349636, 33.594557) rotate(-10.000000) translate(-16.349636, -33.594557) translate(2.349636, 19.094557)">
                        <mask id="mask-2" fill="white">
                            <use xlink:href="#path-1"></use>
                        </mask>
                        <use id="Mask" fill="#586BFF" xlink:href="#path-1"></use>
                        <path d="M25.4644788,12.4841588 C25.4644788,12.4841588 25.8212147,12.7005548 24.6522419,12.4841588 C23.9751777,12.3588231 22.5046025,12.5024017 21.1572815,13.2894231 C19.8099606,14.0764445 18.915934,15.012302 18.5000803,16.6261854 C18.0842266,18.2400687 18.5817118,21.6763544 16.0586993,24.0662305 C13.5356869,26.4561066 12.149373,26.722774 10.194333,27.0736382 C8.23929301,27.4245024 5.4831371,26.7959719 4.02926584,26.0932707 C2.57539458,25.3905694 -1.54588394,21.9489418 -1.54588394,21.9489418 C-1.54588394,21.9489418 -0.435318671,26.8980804 2.44399625,28.2716021 C5.32331116,29.6451238 10.194333,29.9363843 10.194333,29.9363843 C10.194333,29.9363843 14.0039736,29.7916139 15.8594553,29.1062038 C17.714937,28.4207937 23.3729034,25.0682549 23.3729034,25.0682549 L25.84463,17.6636234 L25.4644788,12.4841588 Z" id="Path-4" fill="#FF61A1" mask="url(#mask-2)" transform="translate(12.149373, 21.190295) rotate(10.000000) translate(-12.149373, -21.190295) "></path>
                        <g id="Path-4" mask="url(#mask-2)" fill="#FFC243">
                            <g transform="translate(21.843530, 4.980297)" id="Path-5">
                                <path d="M0.283834325,2.58653156 L0.00130101318,5.28419242 C0.00130101318,5.28419242 -0.0218083711,5.48041479 0.175985979,5.51731252 C0.373780329,5.55421025 2.50766927,5.83674356 2.50766927,5.83674356 L5.03132756,3.16751026 L6.20876214,0.419638238 L4.71488884,0.003523988 L3.03990287,0.894891024 L0.283834325,2.58653156 Z"></path>
                            </g>
                        </g>
                    </g>
                    <path d="M13.7136733,31.0253568 C13.7136733,31.0253568 15.5394667,31.1696109 17.7378321,29.9863541 C19.9361975,28.8030973 20.7183037,26.9347811 20.7183037,26.9347811 C20.7183037,26.9347811 20.8184443,29.6908401 18.3185827,31.0253568 C15.818721,32.3598735 13.7136733,31.0253568 13.7136733,31.0253568 Z" id="Path-3" fill="#2F3A92"></path>
                    <g id="Group-7" transform="translate(34.909162, 12.571681) rotate(-10.000000) translate(-34.909162, -12.571681) translate(24.409162, 2.571681)" fill="#FFFFFF">
                        <path d="M0.0660828847,13.2133519 C-0.387752592,13.6657591 -0.387752592,14.4020296 0.0660828847,14.8588721 C0.519918362,15.3112793 1.25851335,15.3112793 1.7167982,14.8588721 C4.8580516,11.7275049 9.97037477,11.7275049 13.1116282,14.8588721 C13.3385459,15.0850757 13.6366535,15.2003952 13.9347611,15.2003952 C14.2328688,15.2003952 14.5309764,15.0850757 14.7578941,14.8588721 C15.2117296,14.406465 15.2117296,13.6701945 14.7578941,13.2133519 C10.7089698,9.17273499 4.11500724,9.17273499 0.0660828847,13.2133519 Z" id="Shape" transform="translate(7.411988, 12.691642) rotate(45.000000) translate(-7.411988, -12.691642) "></path>
                        <path d="M0.537803938,15.2417016 C0.0839684607,15.6941088 0.0839684607,16.4303793 0.537803938,16.8872218 C0.991639415,17.339629 1.73023441,17.339629 2.18851925,16.8872218 C3.59006999,15.4856467 5.87704484,15.4856467 7.27859558,16.8872218 C7.50551332,17.1134254 7.80362094,17.2287449 8.10172855,17.2287449 C8.39983617,17.2287449 8.69794379,17.1134254 8.92486153,16.8872218 C9.378697,16.4348147 9.378697,15.6985442 8.92486153,15.246137 C6.61563984,12.9353122 2.851475,12.9353122 0.537803938,15.2417016 Z" id="Shape" transform="translate(4.731333, 15.370604) rotate(45.000000) translate(-4.731333, -15.370604) "></path>
                        <path d="M20.678193,11.1476605 C14.8628697,5.3550746 5.40351461,5.3550746 -0.411808611,11.1476605 C-0.865644088,11.6000677 -0.865644088,12.3363381 -0.411808611,12.7931807 C0.0420268664,13.2455878 0.780621858,13.2455878 1.2389067,12.7931807 C6.1421096,7.90097376 14.1242748,7.90097376 19.031927,12.7931807 C19.2588448,13.0193843 19.5569524,13.1347037 19.85506,13.1347037 C20.1531676,13.1347037 20.4512752,13.0193843 20.678193,12.7931807 C21.1320284,12.3407735 21.1320284,11.604503 20.678193,11.1476605 Z" id="Shape" transform="translate(10.133192, 9.968962) rotate(45.000000) translate(-10.133192, -9.968962) "></path>
                    </g>
                </g>
                <path d="M43.2165803,32.6806632 C43.3574031,32.2380772 43.6189273,31.9162014 44.0011606,31.7150259 C44.383394,31.5138505 44.7756802,31.4132642 45.1780311,31.4132642 C45.7010872,31.4132642 46.1788718,31.5842608 46.611399,31.9262591 C47.0439262,32.2682573 47.2601865,32.7108367 47.2601865,33.2540104 C47.2601865,33.4753034 47.2300107,33.6563585 47.169658,33.7971813 L43.4881658,44.5398964 C43.0656974,45.7670666 42.6583232,46.8936322 42.2660311,47.9196269 C41.873739,48.9456217 41.4110424,49.8307804 40.8779275,50.5751295 C40.3448125,51.3194787 39.7010608,51.8978494 38.9466528,52.3102591 C38.1922449,52.7226687 37.2417052,52.9288705 36.0950052,52.9288705 C35.4914788,52.9288705 34.9885478,52.7578739 34.5861969,52.4158756 C34.183846,52.0738774 33.9826736,51.6413567 33.9826736,51.1183005 C33.9826736,50.655597 34.1586994,50.2482228 34.5107565,49.8961658 C34.8628135,49.5441088 35.3506566,49.3479657 35.9743005,49.3077306 C36.6381795,49.2674955 37.1662571,48.9908834 37.5585492,48.477886 C37.9508413,47.9648886 38.3280396,47.1149351 38.6901554,45.928 L34.0430259,33.9480622 C33.9826733,33.7871218 33.9424388,33.6463011 33.9223212,33.5255959 C33.9022037,33.4048906 33.8921451,33.2942458 33.8921451,33.193658 C33.8921451,32.6706019 34.0933175,32.2431105 34.4956684,31.911171 C34.8980193,31.5792315 35.3908917,31.4132642 35.9743005,31.4132642 C36.3766514,31.4132642 36.7538497,31.5188798 37.1059067,31.730114 C37.4579638,31.9413482 37.7144586,32.2581948 37.875399,32.6806632 L39.7764974,37.7502591 C39.9977904,38.2934328 40.1738163,38.8667742 40.3045803,39.4703005 C40.4353443,40.0738269 40.5811944,40.6572269 40.7421347,41.2205181 C40.8829575,40.6572269 41.0137196,40.0738269 41.1344249,39.4703005 C41.2551301,38.8667742 41.4060095,38.2934328 41.5870674,37.7502591 L43.2165803,32.6806632 Z M55.6189845,47.014342 C54.5527546,47.014342 53.6122735,46.868492 52.797513,46.5767876 C51.9827524,46.2850832 51.2987662,45.8877676 50.7455337,45.384829 C50.1923012,44.8818904 49.7748684,44.2884317 49.4932228,43.6044352 C49.2115772,42.9204387 49.0707565,42.1861594 49.0707565,41.4015751 L49.0707565,36.9053264 C49.0707565,36.1207422 49.2115772,35.3864628 49.4932228,34.7024663 C49.7748684,34.0184698 50.1923012,33.4250112 50.7455337,32.9220725 C51.2987662,32.4191339 51.9827524,32.0218184 52.797513,31.730114 C53.6122735,31.4384096 54.5527546,31.2925596 55.6189845,31.2925596 C56.6852143,31.2925596 57.6256954,31.4384096 58.440456,31.730114 C59.2552165,32.0218184 59.9392028,32.4191339 60.4924352,32.9220725 C61.0456677,33.4250112 61.4631005,34.0184698 61.7447461,34.7024663 C62.0263917,35.3864628 62.1672124,36.1207422 62.1672124,36.9053264 L62.1672124,41.4015751 C62.1672124,42.1861594 62.0263917,42.9204387 61.7447461,43.6044352 C61.4631005,44.2884317 61.0456677,44.8818904 60.4924352,45.384829 C59.9392028,45.8877676 59.2552165,46.2850832 58.440456,46.5767876 C57.6256954,46.868492 56.6852143,47.014342 55.6189845,47.014342 Z M55.6189845,43.4535544 C56.4035687,43.4535544 56.9970273,43.2724992 57.3993782,42.9103834 C57.8017291,42.5482676 58.0029016,42.0453366 58.0029016,41.4015751 L58.0029016,36.8751503 C58.0029016,36.2515064 57.8017291,35.7586339 57.3993782,35.3965181 C56.9970273,35.0344023 56.4035687,34.8533472 55.6189845,34.8533472 C54.8344002,34.8533472 54.2409416,35.0344023 53.8385907,35.3965181 C53.4362398,35.7586339 53.2350674,36.2515064 53.2350674,36.8751503 L53.2350674,41.4015751 C53.2350674,42.0453366 53.4362398,42.5482676 53.8385907,42.9103834 C54.2409416,43.2724992 54.8344002,43.4535544 55.6189845,43.4535544 Z M75.2334922,45.6865907 C74.5293782,46.1895293 73.830304,46.5365517 73.1362487,46.7276684 C72.4421934,46.9187851 71.7531779,47.014342 71.0691813,47.014342 C69.2384848,47.014342 67.8453657,46.4711764 66.8897824,45.384829 C65.934199,44.2984816 65.4564145,42.8701574 65.4564145,41.0998135 L65.4564145,33.2238342 C65.4564145,32.700778 65.6374697,32.2682573 65.9995855,31.9262591 C66.3617013,31.5842608 66.874691,31.4132642 67.5385699,31.4132642 C68.2024489,31.4132642 68.7154386,31.5842608 69.0775544,31.9262591 C69.4396702,32.2682573 69.6207254,32.700778 69.6207254,33.2238342 L69.6207254,41.0998135 C69.6207254,41.8642802 69.7816633,42.4577388 70.103544,42.8802073 C70.4254248,43.3026757 70.9182972,43.5139067 71.5821762,43.5139067 C72.1857025,43.5139067 72.9602163,43.3026757 73.9057409,42.8802073 C73.8856234,42.7796195 73.8705355,42.6840626 73.8604767,42.5935337 C73.8504179,42.5030047 73.8453886,42.4074478 73.8453886,42.3068601 L73.8453886,33.2238342 C73.8453886,32.700778 74.0163852,32.2682573 74.3583834,31.9262591 C74.7003817,31.5842608 75.22343,31.4132642 75.927544,31.4132642 C76.6316581,31.4132642 77.1547064,31.5842608 77.4967047,31.9262591 C77.8387029,32.2682573 78.0096995,32.700778 78.0096995,33.2238342 L78.0096995,42.9103834 C78.0096995,43.1316764 78.0549633,43.3127316 78.1454922,43.4535544 C78.2360212,43.5943772 78.3818712,43.7653738 78.5830466,43.9665492 C78.8646923,44.2481948 79.005513,44.590188 79.005513,44.9925389 C79.005513,45.5960652 78.7993112,46.0537325 78.3869016,46.3655544 C77.9744919,46.6773763 77.5369419,46.833285 77.0742383,46.833285 C76.6718875,46.833285 76.3198357,46.7276694 76.0180725,46.5164352 C75.7163094,46.305201 75.4547852,46.0285889 75.2334922,45.6865907 Z M89.1145285,35.1551088 C88.7926478,35.1349913 88.5110064,35.1199033 88.2695959,35.1098446 C88.0281853,35.0997858 87.796837,35.1048151 87.575544,35.1249326 C87.3542511,35.1450502 87.1379907,35.1802554 86.9267565,35.2305492 C86.7155223,35.2808431 86.4791447,35.3562827 86.2176166,35.4568705 C86.2377341,35.5574582 86.2528221,35.6530151 86.2628808,35.743544 C86.2729396,35.834073 86.2779689,35.9296299 86.2779689,36.0302176 L86.2779689,45.1434197 C86.2779689,45.6664758 86.0767965,46.1090552 85.6744456,46.471171 C85.2720947,46.8332868 84.7792223,47.014342 84.1958135,47.014342 C83.6124047,47.014342 83.1195322,46.8332868 82.7171813,46.471171 C82.3148305,46.1090552 82.113658,45.6664758 82.113658,45.1434197 L82.113658,36.0302176 C82.113658,35.6882194 82.0885115,35.4116073 82.0382176,35.2003731 C81.9879238,34.9891388 81.9024255,34.7929957 81.7817202,34.6119378 C81.6610149,34.4509975 81.5604287,34.3001181 81.4799585,34.1592953 C81.3994884,34.0184725 81.3592539,33.8374173 81.3592539,33.6161244 C81.3592539,33.0729507 81.5654556,32.6354006 81.9778653,32.3034611 C82.3902749,31.9715217 82.8680595,31.8055544 83.4112332,31.8055544 C83.7331139,31.8055544 84.0248139,31.8910527 84.286342,32.0620518 C84.54787,32.2330509 84.789277,32.4593699 85.0105699,32.7410155 C85.714684,32.3386647 86.3936409,32.0218181 87.0474611,31.7904663 C87.7012813,31.5591146 88.2695934,31.4434404 88.7524145,31.4434404 C89.6979391,31.4434404 90.3467202,31.6194663 90.6987772,31.9715233 C91.0508342,32.3235803 91.2268601,32.7510718 91.2268601,33.2540104 C91.2268601,33.8374192 91.0206584,34.3101744 90.6082487,34.6722902 C90.195839,35.034406 89.6979373,35.1953439 89.1145285,35.1551088 Z M101.469513,47.014342 C101.16775,47.014342 100.845874,46.9791368 100.503876,46.9087254 C100.161877,46.838314 99.8500601,46.677376 99.5684145,46.4259067 C99.2867689,46.1744374 99.0503913,45.8123271 98.8592746,45.3395648 C98.6681579,44.8668025 98.572601,44.2381386 98.572601,43.4535544 L98.572601,26.8868394 C98.572601,26.3839008 98.7737735,25.9463507 99.1761244,25.5741762 C99.5784752,25.2020016 100.071348,25.0159171 100.654756,25.0159171 C101.238165,25.0159171 101.731038,25.1969723 102.133389,25.5590881 C102.535739,25.9212039 102.736912,26.3637832 102.736912,26.8868394 L102.736912,43.0914404 C102.736912,43.4133211 102.757029,43.6446694 102.797264,43.7854922 C102.837499,43.926315 102.968261,44.1073702 103.189554,44.3286632 C103.350495,44.4896036 103.481257,44.6354536 103.581845,44.7662176 C103.682432,44.8969817 103.732725,45.1031834 103.732725,45.384829 C103.732725,45.9280027 103.531553,46.3353769 103.129202,46.6069637 C102.726851,46.8785506 102.173627,47.014342 101.469513,47.014342 Z M112.634694,47.014342 C111.568464,47.014342 110.627983,46.868492 109.813223,46.5767876 C108.998462,46.2850832 108.314476,45.8877676 107.761244,45.384829 C107.208011,44.8818904 106.790578,44.2884317 106.508933,43.6044352 C106.227287,42.9204387 106.086466,42.1861594 106.086466,41.4015751 L106.086466,36.9053264 C106.086466,36.1207422 106.227287,35.3864628 106.508933,34.7024663 C106.790578,34.0184698 107.208011,33.4250112 107.761244,32.9220725 C108.314476,32.4191339 108.998462,32.0218184 109.813223,31.730114 C110.627983,31.4384096 111.568464,31.2925596 112.634694,31.2925596 C113.700924,31.2925596 114.641405,31.4384096 115.456166,31.730114 C116.270926,32.0218184 116.954913,32.4191339 117.508145,32.9220725 C118.061378,33.4250112 118.47881,34.0184698 118.760456,34.7024663 C119.042102,35.3864628 119.182922,36.1207422 119.182922,36.9053264 L119.182922,41.4015751 C119.182922,42.1861594 119.042102,42.9204387 118.760456,43.6044352 C118.47881,44.2884317 118.061378,44.8818904 117.508145,45.384829 C116.954913,45.8877676 116.270926,46.2850832 115.456166,46.5767876 C114.641405,46.868492 113.700924,47.014342 112.634694,47.014342 Z M112.634694,43.4535544 C113.419279,43.4535544 114.012737,43.2724992 114.415088,42.9103834 C114.817439,42.5482676 115.018611,42.0453366 115.018611,41.4015751 L115.018611,36.8751503 C115.018611,36.2515064 114.817439,35.7586339 114.415088,35.3965181 C114.012737,35.0344023 113.419279,34.8533472 112.634694,34.8533472 C111.85011,34.8533472 111.256651,35.0344023 110.854301,35.3965181 C110.45195,35.7586339 110.250777,36.2515064 110.250777,36.8751503 L110.250777,41.4015751 C110.250777,42.0453366 110.45195,42.5482676 110.854301,42.9103834 C111.256651,43.2724992 111.85011,43.4535544 112.634694,43.4535544 Z M130.348104,32.6806632 C130.488926,32.2380772 130.750451,31.9162014 131.132684,31.7150259 C131.514917,31.5138505 131.907204,31.4132642 132.309554,31.4132642 C132.832611,31.4132642 133.310395,31.5842608 133.742922,31.9262591 C134.175449,32.2682573 134.39171,32.7108367 134.39171,33.2540104 C134.39171,33.4753034 134.361534,33.6563585 134.301181,33.7971813 L130.619689,44.5398964 C130.197221,45.7670666 129.789847,46.8936322 129.397554,47.9196269 C129.005262,48.9456217 128.542566,49.8307804 128.009451,50.5751295 C127.476336,51.3194787 126.832584,51.8978494 126.078176,52.3102591 C125.323768,52.7226687 124.373229,52.9288705 123.226528,52.9288705 C122.623002,52.9288705 122.120071,52.7578739 121.71772,52.4158756 C121.315369,52.0738774 121.114197,51.6413567 121.114197,51.1183005 C121.114197,50.655597 121.290223,50.2482228 121.64228,49.8961658 C121.994337,49.5441088 122.48218,49.3479657 123.105824,49.3077306 C123.769703,49.2674955 124.29778,48.9908834 124.690073,48.477886 C125.082365,47.9648886 125.459563,47.1149351 125.821679,45.928 L121.174549,33.9480622 C121.114197,33.7871218 121.073962,33.6463011 121.053845,33.5255959 C121.033727,33.4048906 121.023668,33.2942458 121.023668,33.193658 C121.023668,32.6706019 121.224841,32.2431105 121.627192,31.911171 C122.029543,31.5792315 122.522415,31.4132642 123.105824,31.4132642 C123.508175,31.4132642 123.885373,31.5188798 124.23743,31.730114 C124.589487,31.9413482 124.845982,32.2581948 125.006922,32.6806632 L126.908021,37.7502591 C127.129314,38.2934328 127.30534,38.8667742 127.436104,39.4703005 C127.566868,40.0738269 127.712718,40.6572269 127.873658,41.2205181 C128.014481,40.6572269 128.145243,40.0738269 128.265948,39.4703005 C128.386653,38.8667742 128.537533,38.2934328 128.718591,37.7502591 L130.348104,32.6806632 Z" id="your-loy" fill="#FFFFFF"></path>
            </g>
        </g>
    </g>
</svg>